<?xml version="1.0" encoding="UTF-8"?>
<svg xmlns="http://www.w3.org/2000/svg" xmlns:xlink="http://www.w3.org/1999/xlink" width="1920" height="1920" viewBox="0 0 1920 1920">
<path fill-rule="nonzero" fill="#FFFFFF" fill-opacity="1" d="M 1562.265625 1163.480469 L 1562.265625 1206.707031 C 1565.953125 1200.515625 1572.566406 1194.429688 1585.066406 1194.429688 C 1597.34375 1194.429688 1610.042969 1201.273438 1610.042969 1222.984375 L 1610.042969 1270.414062 L 1595.792969 1270.414062 L 1595.792969 1225.304688 C 1595.792969 1213.253906 1590.820312 1206.613281 1580.441406 1206.613281 C 1567.464844 1206.613281 1562.265625 1215.375 1562.265625 1230.0625 L 1562.265625 1270.414062 L 1547.953125 1270.414062 L 1547.953125 1163.480469 Z M 1504.488281 1196.179688 L 1504.488281 1174.628906 L 1518.800781 1174.628906 L 1518.800781 1196.179688 L 1534.828125 1196.179688 L 1534.828125 1207.609375 L 1518.800781 1207.609375 L 1518.800781 1249.761719 C 1518.800781 1256.667969 1520.550781 1260.074219 1527.152344 1260.074219 C 1528.808594 1260.074219 1531.34375 1259.996094 1533.277344 1259.53125 L 1533.277344 1270.054688 C 1529.9375 1271.277344 1525.3125 1271.433594 1521.652344 1271.433594 C 1509.539062 1271.433594 1504.488281 1265.113281 1504.488281 1252.652344 L 1504.488281 1207.609375 L 1491.921875 1207.609375 L 1491.921875 1196.179688 Z M 1464.839844 1163.480469 L 1479.152344 1163.480469 L 1479.152344 1270.414062 L 1464.839844 1270.414062 Z M 1429.511719 1234.691406 L 1418.203125 1234.691406 C 1403.875 1234.691406 1396.597656 1238.71875 1396.597656 1248.542969 C 1396.597656 1255.804688 1401.5 1261.214844 1410.316406 1261.214844 C 1427.257812 1261.214844 1429.511719 1249.75 1429.511719 1236.984375 Z M 1443.484375 1253.644531 C 1443.484375 1260.457031 1444.066406 1268.34375 1444.503906 1270.414062 L 1430.8125 1270.414062 C 1430.226562 1268.796875 1429.789062 1265.191406 1429.632812 1261.171875 C 1427.019531 1265.972656 1421.265625 1272.164062 1407.109375 1272.164062 C 1389.53125 1272.164062 1382.042969 1260.699219 1382.042969 1249.363281 C 1382.042969 1232.726562 1395.167969 1225.105469 1417.171875 1225.105469 L 1429.433594 1225.105469 L 1429.433594 1219.128906 C 1429.433594 1212.832031 1427.378906 1205.378906 1414.332031 1205.378906 C 1402.65625 1205.378906 1400.601562 1211.054688 1399.328125 1216.769531 L 1385.542969 1216.769531 C 1386.550781 1205.964844 1393.230469 1194.367188 1414.808594 1194.429688 C 1433.289062 1194.5 1443.484375 1201.960938 1443.484375 1218.996094 Z M 1356.601562 1226.296875 C 1356.457031 1214.78125 1350.835938 1205.460938 1338.667969 1205.460938 C 1326.234375 1205.460938 1320.839844 1214.105469 1319.632812 1226.296875 Z M 1319.195312 1236.027344 C 1319.273438 1250 1326.300781 1260.40625 1338.441406 1260.40625 C 1349.566406 1260.40625 1353.105469 1254.863281 1355.398438 1249.617188 L 1369.792969 1249.617188 C 1366.929688 1259.039062 1358.933594 1272.164062 1338.019531 1272.164062 C 1314.464844 1272.164062 1304.734375 1253.328125 1304.734375 1234.144531 C 1304.734375 1211.835938 1316.015625 1194.429688 1338.828125 1194.429688 C 1363.070312 1194.429688 1371.078125 1213.492188 1371.078125 1229.851562 C 1371.078125 1232.15625 1371.078125 1234 1370.867188 1236.027344 Z M 1221.328125 1169.140625 L 1221.328125 1210.894531 L 1271.832031 1210.894531 L 1271.832031 1169.140625 L 1286.863281 1169.140625 L 1286.863281 1270.414062 L 1271.832031 1270.414062 L 1271.832031 1223.621094 L 1221.328125 1223.621094 L 1221.328125 1270.414062 L 1206.296875 1270.414062 L 1206.296875 1169.140625 Z M 1137.589844 1226.296875 C 1137.445312 1214.78125 1131.824219 1205.460938 1119.652344 1205.460938 C 1107.21875 1205.460938 1101.824219 1214.105469 1100.617188 1226.296875 Z M 1100.179688 1236.027344 C 1100.261719 1250 1107.285156 1260.40625 1119.429688 1260.40625 C 1130.550781 1260.40625 1134.089844 1254.863281 1136.382812 1249.617188 L 1150.777344 1249.617188 C 1147.914062 1259.039062 1139.921875 1272.164062 1119.003906 1272.164062 C 1095.449219 1272.164062 1085.71875 1253.328125 1085.71875 1234.144531 C 1085.71875 1211.835938 1097 1194.429688 1119.8125 1194.429688 C 1144.058594 1194.429688 1152.0625 1213.492188 1152.0625 1229.851562 C 1152.0625 1232.15625 1152.0625 1234 1151.851562 1236.027344 Z M 1007.484375 1196.179688 L 1021.386719 1196.179688 C 1021.746094 1198.316406 1021.957031 1205.605469 1021.945312 1207.847656 C 1024.820312 1201.800781 1030.867188 1194.429688 1044.957031 1194.429688 C 1059.058594 1194.429688 1069.71875 1203.246094 1069.71875 1222.773438 L 1069.71875 1270.414062 L 1055.402344 1270.414062 L 1055.402344 1224.535156 C 1055.402344 1213.878906 1051.332031 1206.613281 1040.4375 1206.613281 C 1027.460938 1206.613281 1021.945312 1216.144531 1021.945312 1230.714844 L 1021.945312 1270.414062 L 1007.628906 1270.414062 L 1007.628906 1214.886719 C 1007.628906 1208.46875 1007.628906 1201.882812 1007.484375 1196.179688 M 910.660156 1219.339844 C 910.660156 1240.828125 921.386719 1259.214844 942.4375 1259.214844 C 965.183594 1259.214844 974.078125 1240.417969 974.078125 1219.457031 C 974.078125 1198.144531 963.992188 1180.339844 942.398438 1180.339844 C 920.324219 1180.339844 910.660156 1198.089844 910.660156 1219.339844 M 989.757812 1219.246094 C 989.757812 1247.164062 973.890625 1271.871094 941.800781 1271.871094 C 911.617188 1271.871094 894.980469 1248.820312 894.980469 1219.777344 C 894.980469 1190.707031 912.226562 1167.679688 943.019531 1167.679688 C 971.746094 1167.679688 989.757812 1188.96875 989.757812 1219.246094 M 800.808594 1230.820312 C 806.917969 1223.476562 821.964844 1207.410156 832.066406 1196.179688 L 848.953125 1196.179688 L 821.40625 1224.933594 L 852 1270.414062 L 835.40625 1270.414062 L 811.652344 1234.105469 L 800.808594 1244.578125 L 800.808594 1270.414062 L 786.492188 1270.414062 L 786.492188 1163.480469 L 800.808594 1163.480469 Z M 734.144531 1196.179688 L 748.183594 1196.179688 C 748.394531 1198.183594 748.605469 1204.308594 748.605469 1210.921875 C 752.371094 1201.179688 761.039062 1194.75 773.382812 1194.429688 L 773.382812 1208.535156 C 758.214844 1208.828125 748.605469 1216.011719 748.605469 1235.085938 L 748.605469 1270.414062 L 734.292969 1270.414062 L 734.292969 1216.34375 C 734.292969 1206.546875 734.210938 1200.570312 734.144531 1196.179688 M 662.949219 1233.296875 C 662.949219 1249.191406 670.691406 1260.40625 683.363281 1260.40625 C 696.261719 1260.40625 703.5 1249.683594 703.5 1233.363281 C 703.5 1216.886719 696.273438 1206.1875 683.070312 1206.1875 C 670.027344 1206.1875 662.949219 1216.59375 662.949219 1233.296875 M 718.183594 1233.152344 C 718.183594 1254.746094 705.699219 1272.164062 682.84375 1272.164062 C 661.238281 1272.164062 648.261719 1255.710938 648.261719 1233.429688 C 648.261719 1211.320312 661.105469 1194.429688 683.707031 1194.429688 C 704.558594 1194.429688 718.183594 1209.863281 718.183594 1233.152344 M 550.007812 1196.179688 C 558.746094 1230.023438 563.6875 1249.351562 564.988281 1257.292969 L 565.199219 1257.292969 C 566.566406 1250.132812 571.207031 1232.941406 581.453125 1196.179688 L 595.289062 1196.179688 C 606.265625 1237.128906 609.554688 1249.046875 610.734375 1255.992188 L 610.878906 1255.992188 C 612.65625 1248.105469 615.480469 1236.96875 626.507812 1196.179688 L 640.929688 1196.179688 L 618.222656 1270.414062 L 602.78125 1270.414062 C 595.769531 1243.148438 589.339844 1220.054688 587.746094 1211.691406 L 587.601562 1211.691406 C 586.277344 1220.027344 580.152344 1241.488281 572.132812 1270.414062 L 556.292969 1270.414062 L 534.859375 1196.179688 Z M 496.746094 1196.179688 L 496.746094 1174.628906 L 511.0625 1174.628906 L 511.0625 1196.179688 L 527.089844 1196.179688 L 527.089844 1207.609375 L 511.0625 1207.609375 L 511.0625 1249.761719 C 511.0625 1256.667969 512.8125 1260.074219 519.414062 1260.074219 C 521.070312 1260.074219 523.601562 1259.996094 525.539062 1259.53125 L 525.539062 1270.054688 C 522.199219 1271.277344 517.574219 1271.433594 513.914062 1271.433594 C 501.796875 1271.433594 496.746094 1265.113281 496.746094 1252.652344 L 496.746094 1207.609375 L 484.179688 1207.609375 L 484.179688 1196.179688 Z M 462.308594 1226.296875 C 462.164062 1214.78125 456.542969 1205.460938 444.371094 1205.460938 C 431.9375 1205.460938 426.542969 1214.105469 425.335938 1226.296875 Z M 424.898438 1236.027344 C 424.976562 1250 432.003906 1260.40625 444.148438 1260.40625 C 455.269531 1260.40625 458.808594 1254.863281 461.101562 1249.617188 L 475.496094 1249.617188 C 472.632812 1259.039062 464.640625 1272.164062 443.722656 1272.164062 C 420.167969 1272.164062 410.4375 1253.328125 410.4375 1234.144531 C 410.4375 1211.835938 421.71875 1194.429688 444.53125 1194.429688 C 468.777344 1194.429688 476.78125 1213.492188 476.78125 1229.851562 C 476.78125 1232.15625 476.78125 1234 476.570312 1236.027344 Z M 309.957031 1270.414062 L 309.957031 1169.140625 L 329.507812 1169.140625 C 343.679688 1192.644531 373.71875 1241.238281 379.207031 1252.253906 L 379.417969 1252.253906 C 378.410156 1239.714844 378.492188 1223.4375 378.492188 1206.878906 L 378.492188 1169.140625 L 392.542969 1169.140625 L 392.542969 1270.414062 L 374.128906 1270.414062 C 361.21875 1248.847656 329.601562 1195.996094 323.503906 1184.570312 L 323.292969 1184.570312 C 324.023438 1195.597656 324.074219 1213.453125 324.074219 1231.707031 L 324.074219 1270.414062 Z M 309.957031 1270.414062 "/>
<path fill-rule="nonzero" fill="#FFFFFF" fill-opacity="1" d="M 825.351562 744.886719 C 793.578125 777.125 777.839844 823.175781 778.128906 872.214844 C 778.421875 918.796875 794.160156 964.726562 825.351562 997.636719 L 825.441406 997.726562 C 834.039062 1006.828125 843.839844 1014.9375 854.839844 1021.746094 C 854.871094 1021.777344 854.898438 1021.777344 854.929688 1021.808594 C 873.710938 1033.515625 895.960938 1041.546875 921.671875 1044.566406 C 922.609375 1044.6875 923.550781 1044.785156 924.5 1044.875 C 925.148438 1044.945312 925.800781 1045.007812 926.460938 1045.066406 C 927.109375 1045.136719 927.769531 1045.195312 928.441406 1045.246094 C 928.621094 1045.257812 928.800781 1045.277344 928.980469 1045.285156 C 929.898438 1045.367188 930.828125 1045.425781 931.761719 1045.488281 C 931.859375 1045.496094 931.949219 1045.507812 932.050781 1045.507812 C 932.730469 1045.558594 933.421875 1045.597656 934.109375 1045.625 C 934.691406 1045.65625 935.269531 1045.6875 935.859375 1045.714844 C 936.078125 1045.726562 936.300781 1045.738281 936.519531 1045.738281 C 937.359375 1045.777344 938.210938 1045.808594 939.058594 1045.828125 C 939.941406 1045.855469 940.828125 1045.875 941.730469 1045.886719 C 942.839844 1045.90625 943.949219 1045.917969 945.070312 1045.917969 L 945.070312 1073.738281 C 937.03125 1073.738281 929.230469 1073.367188 921.671875 1072.625 C 896.730469 1070.226562 874.46875 1063.976562 854.929688 1054.636719 C 854.898438 1054.636719 854.871094 1054.605469 854.839844 1054.605469 C 831.199219 1043.367188 811.539062 1027.65625 795.769531 1008.9375 L 793.429688 1006.035156 L 580.46875 745.296875 L 580.46875 1067.066406 L 550.421875 1067.066406 L 550.421875 677.386719 L 563.238281 677.386719 L 751.511719 908.847656 C 749.578125 896.648438 748.609375 884.148438 748.609375 871.65625 C 748.609375 806.175781 774.089844 744.214844 825.351562 706.9375 C 834.359375 700.386719 844.191406 694.597656 854.839844 689.707031 C 874.421875 680.675781 896.679688 674.625 921.671875 672.316406 C 929.21875 671.605469 937.019531 671.246094 945.070312 671.246094 L 945.070312 699.097656 C 944.058594 699.097656 943.050781 699.105469 942.050781 699.117188 C 941.410156 699.125 940.769531 699.136719 940.140625 699.15625 C 939.378906 699.167969 938.628906 699.1875 937.878906 699.214844 C 937.121094 699.238281 936.359375 699.265625 935.609375 699.296875 C 935.070312 699.316406 934.519531 699.347656 933.980469 699.375 C 933.558594 699.398438 933.148438 699.417969 932.730469 699.445312 C 931.890625 699.488281 931.058594 699.535156 930.230469 699.597656 C 929.339844 699.648438 928.460938 699.714844 927.589844 699.785156 C 927.359375 699.808594 927.121094 699.828125 926.890625 699.847656 C 926.089844 699.90625 925.289062 699.976562 924.5 700.066406 C 923.550781 700.148438 922.609375 700.246094 921.671875 700.355469 C 895.921875 703.175781 873.648438 710.707031 854.839844 721.828125 C 843.808594 728.355469 833.980469 736.105469 825.351562 744.886719 "/>
<path fill-rule="nonzero" fill="#FFFFFF" fill-opacity="1" d="M 1112.460938 862.757812 C 1110.550781 818.257812 1094.871094 776.1875 1065.378906 745.847656 C 1056.570312 736.835938 1046.570312 728.816406 1035.328125 722.117188 C 1011.019531 707.605469 980.980469 699.097656 945.128906 699.097656 L 945.070312 699.097656 C 944.058594 699.097656 943.050781 699.105469 942.050781 699.117188 C 941.410156 699.125 940.769531 699.136719 940.140625 699.15625 C 939.378906 699.167969 938.628906 699.1875 937.878906 699.214844 C 937.121094 699.238281 936.359375 699.265625 935.609375 699.296875 C 935.070312 699.316406 934.519531 699.347656 933.980469 699.375 C 933.558594 699.398438 933.148438 699.417969 932.730469 699.445312 C 931.890625 699.488281 931.058594 699.535156 930.230469 699.597656 C 929.351562 699.65625 928.46875 699.714844 927.589844 699.785156 C 927.359375 699.808594 927.121094 699.828125 926.890625 699.847656 C 926.089844 699.917969 925.289062 699.988281 924.5 700.066406 C 923.550781 700.15625 922.609375 700.257812 921.671875 700.355469 L 921.671875 722.496094 L 945.070312 722.496094 C 975.101562 722.496094 1001.421875 729.136719 1023.339844 742.214844 C 1032.519531 747.6875 1041.03125 754.417969 1048.640625 762.207031 C 1072.96875 787.238281 1087.339844 823.316406 1089.070312 863.757812 L 1089.078125 863.917969 L 1089.089844 864.066406 C 1089.21875 866.4375 1089.28125 869.097656 1089.28125 872.207031 C 1089.28125 877.386719 1089.058594 882.714844 1088.609375 888.066406 C 1085.390625 924.707031 1071.140625 957.988281 1048.460938 981.695312 C 1040.898438 989.605469 1032.371094 996.496094 1023.121094 1002.15625 C 1001.089844 1015.667969 974.851562 1022.507812 945.128906 1022.507812 L 921.730469 1022.507812 L 921.671875 1044.566406 C 922.609375 1044.675781 923.550781 1044.785156 924.5 1044.875 C 925.148438 1044.945312 925.800781 1045.007812 926.460938 1045.066406 C 927.109375 1045.136719 927.769531 1045.195312 928.441406 1045.246094 C 928.621094 1045.257812 928.800781 1045.277344 928.980469 1045.285156 C 929.898438 1045.367188 930.828125 1045.425781 931.761719 1045.488281 C 931.859375 1045.496094 931.949219 1045.507812 932.050781 1045.507812 C 932.730469 1045.558594 933.421875 1045.597656 934.109375 1045.625 C 934.691406 1045.65625 935.269531 1045.6875 935.859375 1045.714844 C 936.078125 1045.726562 936.300781 1045.738281 936.519531 1045.738281 C 937.359375 1045.777344 938.210938 1045.808594 939.058594 1045.828125 C 939.941406 1045.855469 940.828125 1045.875 941.730469 1045.886719 C 942.839844 1045.90625 943.949219 1045.917969 945.070312 1045.917969 L 945.070312 1045.90625 L 945.128906 1045.90625 C 980.910156 1045.90625 1010.988281 1037.046875 1035.328125 1022.125 C 1046.570312 1015.246094 1056.570312 1007.085938 1065.378906 997.867188 C 1092.851562 969.136719 1108.390625 930.425781 1111.929688 890.027344 C 1112.429688 884.117188 1112.691406 878.175781 1112.691406 872.207031 C 1112.691406 869.046875 1112.628906 865.886719 1112.460938 862.757812 M 1112.460938 862.757812 C 1110.550781 818.257812 1094.871094 776.1875 1065.378906 745.847656 C 1056.570312 736.835938 1046.570312 728.816406 1035.328125 722.117188 C 1011.019531 707.605469 980.980469 699.097656 945.128906 699.097656 L 945.070312 699.097656 L 945.070312 671.246094 C 937.019531 671.246094 929.21875 671.605469 921.671875 672.316406 L 921.671875 722.496094 L 945.070312 722.496094 C 975.101562 722.496094 1001.421875 729.136719 1023.339844 742.214844 C 1032.519531 747.6875 1041.03125 754.417969 1048.640625 762.207031 C 1072.96875 787.238281 1087.339844 823.316406 1089.070312 863.757812 L 1089.078125 863.917969 L 1089.089844 864.066406 C 1089.21875 866.4375 1089.28125 869.097656 1089.28125 872.207031 C 1089.28125 877.386719 1089.058594 882.714844 1088.609375 888.066406 C 1085.390625 924.707031 1071.140625 957.988281 1048.460938 981.695312 C 1040.898438 989.605469 1032.371094 996.496094 1023.121094 1002.15625 C 1001.089844 1015.667969 974.851562 1022.507812 945.128906 1022.507812 L 921.730469 1022.507812 L 921.671875 1044.566406 L 921.671875 1072.625 C 929.230469 1073.367188 937.03125 1073.738281 945.070312 1073.738281 L 945.070312 1045.90625 L 945.128906 1045.90625 C 980.910156 1045.90625 1010.988281 1037.046875 1035.328125 1022.125 C 1046.570312 1015.246094 1056.570312 1007.085938 1065.378906 997.867188 C 1092.851562 969.136719 1108.390625 930.425781 1111.929688 890.027344 C 1112.429688 884.117188 1112.691406 878.175781 1112.691406 872.207031 C 1112.691406 869.046875 1112.628906 865.886719 1112.460938 862.757812 "/>
<path fill-rule="nonzero" fill="#FFFFFF" fill-opacity="1" d="M 1367.140625 653.976562 L 1367.140625 1090.464844 L 1290.28125 1090.464844 L 1290.28125 913.4375 L 1161.679688 913.4375 C 1152.167969 971.867188 1122.878906 1022.785156 1079.410156 1055.375 C 1068.820312 1063.296875 1057.371094 1070.195312 1045.351562 1075.898438 C 1015.589844 1089.996094 981.871094 1097.136719 945.070312 1097.136719 L 921.667969 1097.136719 L 921.667969 1072.625 C 929.230469 1073.367188 937.03125 1073.738281 945.070312 1073.738281 L 945.128906 1073.738281 C 979.800781 1073.738281 1009.878906 1066.796875 1035.328125 1054.746094 C 1046.191406 1049.597656 1056.191406 1043.507812 1065.378906 1036.636719 C 1111.398438 1002.136719 1136.511719 947.546875 1140.917969 890.027344 L 1313.691406 890.027344 L 1313.691406 1067.066406 L 1343.738281 1067.066406 L 1343.738281 677.386719 L 1313.691406 677.386719 L 1313.691406 862.757812 L 1141.480469 862.757812 C 1139.339844 800.816406 1113.917969 742.945312 1065.378906 707.375 C 1056.191406 700.675781 1046.191406 694.738281 1035.328125 689.726562 C 1009.851562 677.9375 979.769531 671.238281 945.128906 671.238281 L 945.070312 671.238281 L 945.070312 671.246094 C 937.019531 671.246094 929.21875 671.605469 921.667969 672.316406 L 921.667969 647.835938 L 945.128906 647.835938 C 981.890625 647.835938 1015.539062 654.785156 1045.128906 668.476562 C 1057.089844 673.988281 1068.550781 680.714844 1079.21875 688.496094 C 1125.660156 722.535156 1155.539062 776.6875 1163.121094 839.355469 L 1290.28125 839.355469 L 1290.28125 653.976562 Z M 1367.140625 653.976562 "/>
</svg>
