<?xml version="1.0" encoding="UTF-8"?>
<svg xmlns="http://www.w3.org/2000/svg" xmlns:xlink="http://www.w3.org/1999/xlink" width="1920" height="1920" viewBox="0 0 1920 1920">

<path fill-rule="nonzero" fill="rgb(34.901428%, 58.432007%, 56.863403%)" fill-opacity="1" d="M 825.351562 744.886719 C 793.578125 777.125 777.839844 823.175781 778.128906 872.214844 C 778.421875 918.796875 794.160156 964.726562 825.351562 997.636719 L 825.441406 997.726562 C 834.039062 1006.828125 843.839844 1014.9375 854.839844 1021.746094 C 854.871094 1021.777344 854.898438 1021.777344 854.929688 1021.808594 C 873.710938 1033.515625 895.960938 1041.546875 921.671875 1044.566406 C 922.609375 1044.6875 923.550781 1044.785156 924.5 1044.875 C 925.148438 1044.945312 925.800781 1045.007812 926.460938 1045.066406 C 927.109375 1045.136719 927.769531 1045.195312 928.441406 1045.246094 C 928.621094 1045.257812 928.800781 1045.277344 928.980469 1045.285156 C 929.898438 1045.367188 930.828125 1045.425781 931.761719 1045.488281 C 931.859375 1045.496094 931.949219 1045.507812 932.050781 1045.507812 C 932.730469 1045.558594 933.421875 1045.597656 934.109375 1045.625 C 934.691406 1045.65625 935.269531 1045.6875 935.859375 1045.714844 C 936.078125 1045.726562 936.300781 1045.738281 936.519531 1045.738281 C 937.359375 1045.777344 938.210938 1045.808594 939.058594 1045.828125 C 939.941406 1045.855469 940.828125 1045.875 941.730469 1045.886719 C 942.839844 1045.90625 943.949219 1045.917969 945.070312 1045.917969 L 945.070312 1073.738281 C 937.03125 1073.738281 929.230469 1073.367188 921.671875 1072.625 C 896.730469 1070.226562 874.46875 1063.976562 854.929688 1054.636719 C 854.898438 1054.636719 854.871094 1054.605469 854.839844 1054.605469 C 831.199219 1043.367188 811.539062 1027.65625 795.769531 1008.9375 L 793.429688 1006.035156 L 580.46875 745.296875 L 580.46875 1067.066406 L 550.421875 1067.066406 L 550.421875 677.386719 L 563.238281 677.386719 L 751.511719 908.847656 C 749.578125 896.648438 748.609375 884.148438 748.609375 871.65625 C 748.609375 806.175781 774.089844 744.214844 825.351562 706.9375 C 834.359375 700.386719 844.191406 694.597656 854.839844 689.707031 C 874.421875 680.675781 896.679688 674.625 921.671875 672.316406 C 929.21875 671.605469 937.019531 671.246094 945.070312 671.246094 L 945.070312 699.097656 C 944.058594 699.097656 943.050781 699.105469 942.050781 699.117188 C 941.410156 699.125 940.769531 699.136719 940.140625 699.15625 C 939.378906 699.167969 938.628906 699.1875 937.878906 699.214844 C 937.121094 699.238281 936.359375 699.265625 935.609375 699.296875 C 935.070312 699.316406 934.519531 699.347656 933.980469 699.375 C 933.558594 699.398438 933.148438 699.417969 932.730469 699.445312 C 931.890625 699.488281 931.058594 699.535156 930.230469 699.597656 C 929.339844 699.648438 928.460938 699.714844 927.589844 699.785156 C 927.359375 699.808594 927.121094 699.828125 926.890625 699.847656 C 926.089844 699.90625 925.289062 699.976562 924.5 700.066406 C 923.550781 700.148438 922.609375 700.246094 921.671875 700.355469 C 895.921875 703.175781 873.648438 710.707031 854.839844 721.828125 C 843.808594 728.355469 833.980469 736.105469 825.351562 744.886719 "/>
<path fill-rule="nonzero" fill="rgb(95.294189%, 74.118042%, 76.863098%)" fill-opacity="1" d="M 1112.460938 862.757812 C 1110.550781 818.257812 1094.871094 776.1875 1065.378906 745.847656 C 1056.570312 736.835938 1046.570312 728.816406 1035.328125 722.117188 C 1011.019531 707.605469 980.980469 699.097656 945.128906 699.097656 L 945.070312 699.097656 C 944.058594 699.097656 943.050781 699.105469 942.050781 699.117188 C 941.410156 699.125 940.769531 699.136719 940.140625 699.15625 C 939.378906 699.167969 938.628906 699.1875 937.878906 699.214844 C 937.121094 699.238281 936.359375 699.265625 935.609375 699.296875 C 935.070312 699.316406 934.519531 699.347656 933.980469 699.375 C 933.558594 699.398438 933.148438 699.417969 932.730469 699.445312 C 931.890625 699.488281 931.058594 699.535156 930.230469 699.597656 C 929.351562 699.65625 928.46875 699.714844 927.589844 699.785156 C 927.359375 699.808594 927.121094 699.828125 926.890625 699.847656 C 926.089844 699.917969 925.289062 699.988281 924.5 700.066406 C 923.550781 700.15625 922.609375 700.257812 921.671875 700.355469 L 921.671875 722.496094 L 945.070312 722.496094 C 975.101562 722.496094 1001.421875 729.136719 1023.339844 742.214844 C 1032.519531 747.6875 1041.03125 754.417969 1048.640625 762.207031 C 1072.96875 787.238281 1087.339844 823.316406 1089.070312 863.757812 L 1089.078125 863.917969 L 1089.089844 864.066406 C 1089.21875 866.4375 1089.28125 869.097656 1089.28125 872.207031 C 1089.28125 877.386719 1089.058594 882.714844 1088.609375 888.066406 C 1085.390625 924.707031 1071.140625 957.988281 1048.460938 981.695312 C 1040.898438 989.605469 1032.371094 996.496094 1023.121094 1002.15625 C 1001.089844 1015.667969 974.851562 1022.507812 945.128906 1022.507812 L 921.730469 1022.507812 L 921.671875 1044.566406 C 922.609375 1044.675781 923.550781 1044.785156 924.5 1044.875 C 925.148438 1044.945312 925.800781 1045.007812 926.460938 1045.066406 C 927.109375 1045.136719 927.769531 1045.195312 928.441406 1045.246094 C 928.621094 1045.257812 928.800781 1045.277344 928.980469 1045.285156 C 929.898438 1045.367188 930.828125 1045.425781 931.761719 1045.488281 C 931.859375 1045.496094 931.949219 1045.507812 932.050781 1045.507812 C 932.730469 1045.558594 933.421875 1045.597656 934.109375 1045.625 C 934.691406 1045.65625 935.269531 1045.6875 935.859375 1045.714844 C 936.078125 1045.726562 936.300781 1045.738281 936.519531 1045.738281 C 937.359375 1045.777344 938.210938 1045.808594 939.058594 1045.828125 C 939.941406 1045.855469 940.828125 1045.875 941.730469 1045.886719 C 942.839844 1045.90625 943.949219 1045.917969 945.070312 1045.917969 L 945.070312 1045.90625 L 945.128906 1045.90625 C 980.910156 1045.90625 1010.988281 1037.046875 1035.328125 1022.125 C 1046.570312 1015.246094 1056.570312 1007.085938 1065.378906 997.867188 C 1092.851562 969.136719 1108.390625 930.425781 1111.929688 890.027344 C 1112.429688 884.117188 1112.691406 878.175781 1112.691406 872.207031 C 1112.691406 869.046875 1112.628906 865.886719 1112.460938 862.757812 M 1112.460938 862.757812 C 1110.550781 818.257812 1094.871094 776.1875 1065.378906 745.847656 C 1056.570312 736.835938 1046.570312 728.816406 1035.328125 722.117188 C 1011.019531 707.605469 980.980469 699.097656 945.128906 699.097656 L 945.070312 699.097656 L 945.070312 671.246094 C 937.019531 671.246094 929.21875 671.605469 921.671875 672.316406 L 921.671875 722.496094 L 945.070312 722.496094 C 975.101562 722.496094 1001.421875 729.136719 1023.339844 742.214844 C 1032.519531 747.6875 1041.03125 754.417969 1048.640625 762.207031 C 1072.96875 787.238281 1087.339844 823.316406 1089.070312 863.757812 L 1089.078125 863.917969 L 1089.089844 864.066406 C 1089.21875 866.4375 1089.28125 869.097656 1089.28125 872.207031 C 1089.28125 877.386719 1089.058594 882.714844 1088.609375 888.066406 C 1085.390625 924.707031 1071.140625 957.988281 1048.460938 981.695312 C 1040.898438 989.605469 1032.371094 996.496094 1023.121094 1002.15625 C 1001.089844 1015.667969 974.851562 1022.507812 945.128906 1022.507812 L 921.730469 1022.507812 L 921.671875 1044.566406 L 921.671875 1072.625 C 929.230469 1073.367188 937.03125 1073.738281 945.070312 1073.738281 L 945.070312 1045.90625 L 945.128906 1045.90625 C 980.910156 1045.90625 1010.988281 1037.046875 1035.328125 1022.125 C 1046.570312 1015.246094 1056.570312 1007.085938 1065.378906 997.867188 C 1092.851562 969.136719 1108.390625 930.425781 1111.929688 890.027344 C 1112.429688 884.117188 1112.691406 878.175781 1112.691406 872.207031 C 1112.691406 869.046875 1112.628906 865.886719 1112.460938 862.757812 "/>
<path fill-rule="nonzero" fill="rgb(95.294189%, 74.118042%, 76.863098%)" fill-opacity="1" d="M 1367.140625 653.976562 L 1367.140625 1090.464844 L 1290.28125 1090.464844 L 1290.28125 913.4375 L 1161.679688 913.4375 C 1152.167969 971.867188 1122.878906 1022.785156 1079.410156 1055.375 C 1068.820312 1063.296875 1057.371094 1070.195312 1045.351562 1075.898438 C 1015.589844 1089.996094 981.871094 1097.136719 945.070312 1097.136719 L 921.667969 1097.136719 L 921.667969 1072.625 C 929.230469 1073.367188 937.03125 1073.738281 945.070312 1073.738281 L 945.128906 1073.738281 C 979.800781 1073.738281 1009.878906 1066.796875 1035.328125 1054.746094 C 1046.191406 1049.597656 1056.191406 1043.507812 1065.378906 1036.636719 C 1111.398438 1002.136719 1136.511719 947.546875 1140.917969 890.027344 L 1313.691406 890.027344 L 1313.691406 1067.066406 L 1343.738281 1067.066406 L 1343.738281 677.386719 L 1313.691406 677.386719 L 1313.691406 862.757812 L 1141.480469 862.757812 C 1139.339844 800.816406 1113.917969 742.945312 1065.378906 707.375 C 1056.191406 700.675781 1046.191406 694.738281 1035.328125 689.726562 C 1009.851562 677.9375 979.769531 671.238281 945.128906 671.238281 L 945.070312 671.238281 L 945.070312 671.246094 C 937.019531 671.246094 929.21875 671.605469 921.667969 672.316406 L 921.667969 647.835938 L 945.128906 647.835938 C 981.890625 647.835938 1015.539062 654.785156 1045.128906 668.476562 C 1057.089844 673.988281 1068.550781 680.714844 1079.21875 688.496094 C 1125.660156 722.535156 1155.539062 776.6875 1163.121094 839.355469 L 1290.28125 839.355469 L 1290.28125 653.976562 Z M 1367.140625 653.976562 "/>
</svg>